<svg xmlns="http://www.w3.org/2000/svg" width="32" height="21.888" fill="none" viewBox="0 0 32 21.888"><defs><filter id="pixso_custom_mask_type_alpha"><feColorMatrix values="0 0 0 0 1 0 0 0 0 1 0 0 0 0 1 0 0 0 1 0"/></filter><filter id="filter_4" width="16" height="20" x="8" y="0" color-interpolation-filters="sRGB" filterUnits="userSpaceOnUse"><feFlood flood-opacity="0" result="BackgroundImageFix"/><feOffset dy=".5" in="SourceAlpha"/><feColorMatrix values="0 0 0 0 0 0 0 0 0 0 0 0 0 0 0 0 0 0 0.25 0"/><feBlend in2="BackgroundImageFix" result="effect_dropShadow_1"/><feBlend in="SourceGraphic" in2="effect_dropShadow_1" result="shape"/></filter><linearGradient id="paint_linear_4" x1="16" x2="16" y1="0" y2="20" gradientUnits="userSpaceOnUse"><stop offset="0" stop-color="#fff6dd"/><stop offset="1" stop-color="#febf1a"/></linearGradient></defs><mask id="mask_9" width="32" height="16" x="0" y="3" maskUnits="userSpaceOnUse"><g filter="url(#pixso_custom_mask_type_alpha)"><rect id="矩形 27" width="32" height="16" x="0" y="3" fill="#080808" rx="8"/></g></mask><path id="SS" fill="#fff" fill-opacity="0" d="M0 0h32v21.888H0z"/><rect id="矩形 28" width="32" height="16" x="0" y="3" fill="#d733a9" rx="8"/><g id="蒙版" mask="url(#mask_9)"><path fill="#4f4e4e" d="m-13.047 21.693.381.94.967-.392 1.049 2.585-.552.224-.113-.278-1.334.54.113.279-.533.216-1.048-2.586.923-.374-.381-.94-1.107.449-.22-.544 1.106-.449-.385-.952.536-.192.378.93 1.282-.52.22.544zm-3.778.438 1.594-.647 1.607 3.965-1.593.645zm1.876 3.182.584-.237-1.147-2.83-.584.236zm2.916-2.31-1.334.541.503 1.242 1.335-.541zm4.457-3.527.38.94.968-.393 1.048 2.586-.551.224-.113-.279-1.333.54.113.279-.533.216-1.048-2.586.923-.374-.38-.94-1.108.449-.22-.544 1.106-.449-.386-.951.537-.193.377.93 1.284-.52.22.544zm-3.777.436 1.594-.646 1.607 3.965-1.594.646zm1.877 3.182.584-.236-1.147-2.83-.584.236zm2.916-2.31-1.334.541.504 1.242 1.334-.54zm4.456-3.526.381.94.968-.393 1.048 2.586-.552.223-.112-.278-1.335.541.113.278-.533.216-1.048-2.585.923-.375-.381-.94-1.107.45-.22-.545 1.107-.448-.386-.952.537-.193.377.93 1.283-.52.22.544zm-3.777.437 1.594-.647 1.607 3.965-1.594.646zm1.877 3.182.583-.237-1.147-2.83-.584.236zm2.916-2.31-1.335.541.503 1.242 1.335-.541zm4.456-3.527.38.94.968-.393 1.048 2.586-.551.224-.113-.278-1.334.54.112.278-.532.216-1.049-2.585.924-.374-.381-.94-1.107.448-.22-.544 1.106-.448-.386-.952.537-.193.377.93 1.284-.52.22.545zm-3.778.437 1.594-.646 1.607 3.964-1.594.646zm1.877 3.182.584-.237-1.147-2.83-.584.237zm2.916-2.31-1.334.541.503 1.242 1.335-.54zm4.457-3.527.38.94.968-.392 1.048 2.585-.551.224-.113-.278-1.335.54.113.279-.533.216L7.77 14.35l.923-.374-.38-.94-1.107.449-.22-.544 1.106-.449-.386-.952.537-.192.377.93 1.284-.52.22.544zm-3.778.437 1.594-.646 1.607 3.965-1.594.646zm1.877 3.182.584-.237-1.148-2.83-.583.237zm2.916-2.31-1.335.541.504 1.242 1.334-.54zm4.456-3.527.381.94.968-.392 1.048 2.585-.552.224-.112-.278-1.335.54.113.279-.533.216-1.048-2.586.923-.374-.381-.94-1.107.449-.22-.544 1.106-.449-.385-.951.537-.193.377.93 1.283-.52.22.544zm-3.778.438 1.594-.647 1.607 3.965-1.594.646zm1.876 3.182.584-.237-1.147-2.83-.584.236zm2.916-2.31-1.334.541.503 1.242 1.335-.541zm4.457-3.527.38.94.968-.393 1.048 2.586-.551.224-.113-.278-1.334.54.112.278-.533.216-1.048-2.585.923-.374-.38-.94-1.107.448-.22-.544 1.106-.448-.386-.952.537-.193.377.93 1.284-.52.22.545zm-3.779.437 1.596-.647 1.607 3.965-1.595.646zm1.878 3.182.584-.237-1.147-2.83-.584.237zm2.916-2.31-1.334.541.503 1.242 1.334-.54zm4.456-3.527.381.94.968-.392 1.048 2.585-.551.224-.113-.278-1.335.54.113.279-.533.216-1.048-2.586.923-.374-.38-.94-1.106.448-.22-.544 1.106-.448-.386-.952.537-.193.377.93 1.283-.52.221.544zm-3.778.437 1.596-.646 1.607 3.964-1.596.647zm1.878 3.182.584-.237-1.148-2.83-.583.237zm2.916-2.31-1.335.541.504 1.242 1.334-.54zm4.456-3.527.381.94.968-.392 1.048 2.585-.552.224-.113-.278-1.334.54.113.279-.533.216-1.048-2.586.923-.374-.381-.94-1.107.449-.22-.544 1.106-.449-.385-.951.536-.193.378.93 1.283-.52.22.544zm-3.778.438 1.596-.647 1.607 3.964-1.595.647zm1.877 3.181.584-.236-1.147-2.83-.584.236zm2.916-2.31-1.334.542.503 1.242 1.335-.541zm4.457-3.527.38.94.968-.392 1.048 2.586-.551.223-.113-.278-1.334.541.112.278-.533.216-1.048-2.586.923-.374-.38-.94-1.107.45-.22-.545 1.106-.448-.386-.952.537-.193.377.93L37.26.67l.22.544zm-3.779.438 1.596-.647 1.607 3.965-1.596.647zm1.878 3.181.584-.236-1.147-2.83-.584.236zm2.916-2.309-1.335.54.504 1.243 1.334-.541zm4.456-3.527.381.94.968-.393 1.048 2.586-.552.223-.112-.278-1.335.541.113.278-.533.216-1.048-2.585.923-.374-.38-.94-1.107.448-.221-.544 1.107-.448-.386-.952.537-.193.377.93 1.283-.52.22.544zm-3.777.437 1.596-.647 1.607 3.964-1.596.647zm1.878 3.181.583-.236-1.147-2.83-.584.236zm2.916-2.31-1.335.542.503 1.242 1.335-.541zm4.456-3.527.38.94.968-.392L49.537.431l-.551.223-.113-.278-1.334.541.112.278-.533.216-1.048-2.586.924-.374-.381-.94-1.107.45-.22-.545 1.106-.448-.386-.952.537-.193.377.93 1.284-.52.22.544zm-3.779.438 1.596-.647 1.607 3.965-1.596.647zM45.24.917l.584-.237-1.147-2.83-.584.236zm2.916-2.31-1.334.54.503 1.243 1.334-.541zM-12.047 14.693l.381.94.968-.393 1.048 2.586-.552.224-.112-.278-1.335.54.113.279-.533.216-1.048-2.586.923-.374-.381-.94-1.107.449-.22-.544 1.106-.449-.385-.952.537-.193.377.93 1.282-.519.22.544zm-3.778.437 1.594-.646 1.607 3.965-1.592.645zm1.876 3.182.584-.236-1.147-2.83-.584.236zm2.916-2.31-1.334.542.503 1.242 1.335-.541zm4.457-3.526.38.94.968-.393 1.048 2.586-.551.223-.113-.278-1.332.54.112.278-.533.216-1.048-2.585.923-.374-.38-.94-1.108.449-.22-.544 1.106-.449-.386-.952.537-.192.377.93 1.284-.52.22.544zm-3.777.436 1.594-.646 1.607 3.965-1.594.646zm1.877 3.182.584-.236-1.147-2.83-.584.236zm2.916-2.31-1.334.541.504 1.242 1.334-.54zm4.456-3.527.381.94.968-.392 1.048 2.586-.552.223-.112-.278-1.335.541.113.278-.533.216-1.048-2.586.923-.374-.38-.94-1.107.449-.22-.544 1.106-.449-.386-.951.537-.193.377.93 1.283-.52.221.544zm-3.777.437 1.594-.646 1.607 3.965-1.594.646zm1.877 3.182.584-.236-1.148-2.83-.584.236zm2.916-2.31-1.335.542.503 1.242 1.335-.541zM4.368 8.04l.38.94.968-.393 1.048 2.586-.55.223-.114-.278-1.334.541.113.278-.533.216-1.048-2.585.923-.375-.381-.94-1.107.45-.22-.545 1.106-.448-.386-.952.537-.193.378.93 1.283-.52.22.544zm-3.777.437 1.594-.647 1.607 3.965-1.594.646zm1.876 3.182.584-.237-1.147-2.83-.584.236zm2.916-2.31L4.05 9.89l.503 1.242 1.335-.541zM9.84 5.822l.38.94.968-.393 1.048 2.586-.551.224-.113-.279-1.335.541.113.278-.533.216L8.77 7.35l.923-.374-.38-.94-1.107.448-.22-.544 1.106-.448-.386-.952.537-.193.377.93 1.284-.52.22.545zm-3.778.437 1.594-.646 1.607 3.964-1.594.646zM7.94 9.44l.584-.237-1.147-2.83-.584.236zm2.916-2.31-1.335.541.504 1.242 1.334-.54zm4.456-3.527.381.94.968-.392 1.048 2.585-.552.224-.112-.278-1.335.54.113.279-.533.216-1.048-2.586.923-.374-.381-.94-1.107.449-.22-.544 1.106-.449-.385-.952.537-.193.377.931 1.283-.52.22.544zm-3.778.437 1.594-.646 1.607 3.965-1.594.646zm1.877 3.182.583-.236-1.147-2.83-.584.236zm2.916-2.31-1.335.542.503 1.242 1.335-.541zm4.456-3.526.38.94.968-.393 1.048 2.586-.551.223-.113-.278-1.334.541.112.278-.532.216-1.048-2.585.923-.375-.381-.94-1.107.45-.22-.545 1.106-.448-.386-.952.537-.193.377.93 1.284-.52.22.544zm-3.778.437 1.595-.647 1.607 3.965-1.595.646zm1.877 3.182.584-.237-1.147-2.83-.584.236zm2.916-2.31-1.334.541.503 1.242 1.335-.541zM26.254-.83l.38.94.968-.393 1.048 2.586-.551.224-.113-.279-1.335.541.113.278-.533.216L25.183.697l.923-.374-.38-.94-1.106.448-.22-.544 1.106-.449-.386-.951.537-.193.377.93 1.284-.52.22.544zm-3.779.437 1.596-.647 1.607 3.965-1.596.647zm1.878 3.182.584-.237-1.148-2.83-.583.236zm2.916-2.31-1.335.541.504 1.242 1.334-.54zm4.456-3.527.381.94.968-.392L34.122.084l-.552.224-.112-.278-1.335.54.113.279-.533.216-1.048-2.586.923-.374-.381-.94-1.107.449-.22-.544 1.106-.449-.385-.952.537-.193.377.931 1.283-.52.22.544zm-3.778.437 1.596-.647L31.15.706l-1.595.647zM29.824.57l.584-.237-1.147-2.83-.584.237zm2.916-2.31-1.334.541.503 1.242 1.335-.54zm4.457-3.527.38.94.968-.392 1.048 2.585-.551.224-.113-.278-1.334.54.112.279-.533.216-1.048-2.586.923-.374-.38-.94-1.107.449-.22-.544 1.106-.449-.386-.951.537-.193.377.93 1.284-.52.22.544zm-3.779.438 1.596-.647 1.607 3.964-1.596.647zm1.878 3.181.584-.236-1.147-2.83-.584.236zm2.916-2.31-1.334.542.503 1.242 1.334-.541zm4.456-3.527.381.94.968-.392 1.048 2.586-.552.223-.112-.278-1.335.541.113.278-.533.216-1.048-2.586.923-.374-.38-.94-1.107.449-.22-.544 1.106-.448-.386-.952.537-.193.377.93 1.283-.52.221.544zm-3.777.437 1.596-.646 1.607 3.964-1.596.647zm1.878 3.182.583-.237-1.147-2.83-.584.237zm2.916-2.31-1.335.541.503 1.242 1.335-.54zm4.456-3.527.38.94.968-.392 1.048 2.585-.551.224-.113-.278-1.334.54.112.279-.532.216-1.048-2.586.923-.374-.381-.94-1.107.449-.22-.544 1.106-.449-.386-.951.537-.193.377.93 1.284-.52.22.544zm-3.778.438 1.595-.647 1.607 3.964-1.595.647zm1.877 3.181.584-.236-1.147-2.83-.584.236zm2.916-2.31-1.334.542.503 1.242 1.335-.541z" opacity="0"/><path fill="#4f4e4e" d="m-9.024 27.142.403.93.958-.415 1.11 2.56-.546.236-.12-.275-1.32.573.119.275-.528.229-1.11-2.56.914-.396-.403-.93-1.095.474-.234-.538 1.096-.475-.409-.942.532-.206.4.921 1.27-.55.233.538zm-3.767.528 1.578-.685 1.702 3.926-1.577.683zm1.953 3.136.578-.25-1.215-2.803-.578.25zm2.86-2.379L-9.3 29l.533 1.23 1.321-.573zm4.37-3.633.403.93.958-.415 1.11 2.56-.546.237-.12-.276-1.319.572.12.276-.528.228-1.11-2.56.914-.396-.403-.93-1.096.475-.234-.538 1.096-.475-.409-.942.532-.206.4.921 1.27-.55.234.538zm-3.765.527 1.578-.684 1.702 3.925-1.579.684zm1.952 3.136.578-.25-1.214-2.802-.578.25zm2.86-2.379-1.32.573.533 1.23 1.321-.573zm4.37-3.633.404.93.958-.414 1.11 2.56-.546.236-.12-.275-1.32.573.119.275-.528.229-1.11-2.56.914-.396-.403-.93-1.096.474-.233-.538 1.095-.475-.408-.943.532-.205.4.92 1.27-.55.234.539zm-3.765.528 1.578-.684 1.702 3.925-1.579.684zm1.952 3.136.578-.25-1.214-2.803-.578.25zm2.86-2.379-1.32.573.532 1.23 1.321-.573zm4.37-3.633.404.93.958-.415 1.11 2.56-.546.237-.12-.275-1.32.572.119.276-.528.228-1.11-2.56.914-.396-.403-.93-1.096.475-.233-.539 1.095-.475-.408-.942.532-.205.4.92 1.27-.55.234.538zm-3.765.528 1.578-.684 1.702 3.925-1.579.684zm1.952 3.136.578-.25-1.214-2.803-.578.25zm2.86-2.379-1.321.573.533 1.23 1.321-.573zm4.37-3.633.404.93.958-.415 1.11 2.56-.546.237-.12-.275-1.32.572.119.275-.528.23-1.11-2.56.914-.397-.403-.93-1.096.475-.233-.539 1.095-.475-.408-.942.532-.206.4.922 1.27-.551.234.538zm-3.765.527 1.578-.684 1.701 3.925-1.578.685zm1.952 3.137.578-.25-1.214-2.803-.578.25zm2.86-2.379-1.321.573.533 1.23 1.321-.574zm4.37-3.633.404.93.958-.415 1.11 2.56-.546.237-.12-.276-1.32.573.118.275-.527.229-1.11-2.56.914-.396-.403-.93-1.096.475-.233-.539 1.095-.475-.408-.942.532-.206.4.921 1.27-.55.234.538zm-3.766.528 1.578-.684 1.701 3.925-1.578.684zm1.952 3.136.578-.25-1.214-2.803-.578.25zm2.86-2.379-1.321.573.533 1.23 1.321-.573zm4.37-3.633.404.93.958-.415 1.11 2.56-.546.237-.12-.275-1.32.572.119.276-.528.228-1.11-2.56.914-.396-.403-.93-1.096.475-.233-.539 1.095-.475-.408-.942.532-.206.4.922 1.27-.551.234.538zm-3.766.528 1.58-.685 1.701 3.925-1.579.685zm1.953 3.136.578-.25-1.214-2.803-.578.25zm2.86-2.379-1.321.573.533 1.23 1.321-.573zm4.37-3.633.404.93.958-.415 1.11 2.56-.546.237-.12-.276-1.32.573.118.275-.527.23-1.11-2.56.914-.397-.403-.93-1.095.474-.233-.538 1.095-.475-.408-.942.532-.206.4.921 1.27-.55.233.538zm-3.766.528 1.58-.685 1.701 3.925-1.58.685zm1.953 3.136.578-.251-1.214-2.802-.578.25zm2.86-2.38-1.321.574.533 1.23 1.321-.574zm4.37-3.632.404.93.958-.415 1.11 2.56-.546.237-.12-.276-1.32.573.118.275-.527.229-1.11-2.56.914-.396-.403-.93-1.096.474-.233-.538 1.095-.475-.408-.942.532-.206.4.921 1.27-.55.233.538zm-3.766.528 1.58-.685 1.701 3.925-1.579.684zm1.953 3.135.578-.25-1.214-2.802-.578.25zm2.86-2.378-1.321.572.533 1.23 1.321-.573zm4.37-3.633.404.93.958-.415 1.11 2.56-.546.236-.12-.275-1.321.573.12.275-.528.229-1.11-2.56.914-.396-.403-.93-1.096.474-.233-.538 1.095-.475-.408-.942.532-.206.4.921 1.27-.55.233.538zm-3.766.527 1.58-.684 1.701 3.925-1.58.685zm1.953 3.136.578-.25-1.215-2.802-.578.25zm2.86-2.378-1.321.572.533 1.23 1.32-.573zm4.37-3.633.404.93.958-.415 1.11 2.56-.546.236-.12-.275-1.321.573.12.275-.528.229-1.11-2.56.914-.396-.403-.93-1.096.474-.233-.538 1.095-.475-.408-.943.532-.205.4.921 1.27-.55.233.538zm-3.765.527 1.58-.685 1.701 3.925-1.58.685zm1.953 3.136.578-.25-1.215-2.803-.578.25zm2.86-2.379-1.321.573.533 1.23 1.32-.574zm4.37-3.633.404.93.958-.415 1.11 2.56-.547.237-.119-.276-1.321.573.12.275-.528.229-1.11-2.56.914-.396-.404-.93-1.095.475-.233-.539L49.806 1l-.408-.942.532-.206.399.921 1.27-.55.234.538zm-3.766.528 1.58-.685 1.701 3.925-1.58.685zm1.953 3.136.578-.251-1.215-2.802-.578.25zm2.86-2.38-1.321.574.533 1.229 1.32-.573z" opacity="0"/><path id="矢量 61" fill="#bb188e" fill-rule="nonzero" d="M12.818 18a3.185 3.185 0 0 0 2.258 3.045 3.2 3.2 0 0 0 1.236.121 3.183 3.183 0 0 0 2.333-4.934 3.18 3.18 0 0 0-5.105-.25A3.18 3.18 0 0 0 12.818 18m3.144-3.675h.076a.39.39 0 0 0 .39-.39V12.39a.39.39 0 0 0-.39-.39h-.076a.39.39 0 0 0-.39.39v1.545a.39.39 0 0 0 .39.39m-3.14 1.103a.4.4 0 0 0 .353.107.4.4 0 0 0 .2-.107l.053-.053a.39.39 0 0 0 0-.552l-1.092-1.092a.39.39 0 0 0-.425-.085.4.4 0 0 0-.127.085l-.054.053a.39.39 0 0 0-.048.493q.021.032.048.06zm-.497 2.61v-.076a.39.39 0 0 0-.39-.39H10.39a.39.39 0 0 0-.39.39v.076a.39.39 0 0 0 .39.39h1.545a.4.4 0 0 0 .276-.114.4.4 0 0 0 .107-.2.4.4 0 0 0 .007-.076m1.05 2.534a.38.38 0 0 0-.276-.115.4.4 0 0 0-.276.115l-1.092 1.092a.38.38 0 0 0-.115.276.4.4 0 0 0 .115.276l.053.053a.39.39 0 0 0 .426.085.4.4 0 0 0 .126-.084l1.092-1.093a.4.4 0 0 0 .107-.352.4.4 0 0 0-.107-.2zm2.663 1.103h-.076a.39.39 0 0 0-.39.39v1.545a.39.39 0 0 0 .39.39h.076a.39.39 0 0 0 .39-.39v-1.545a.39.39 0 0 0-.39-.39m3.14-1.103a.39.39 0 0 0-.493-.05.4.4 0 0 0-.06.05l-.053.053a.4.4 0 0 0-.107.352.4.4 0 0 0 .107.2l1.092 1.093a.38.38 0 0 0 .276.114.4.4 0 0 0 .276-.114l.053-.055a.39.39 0 0 0 0-.551zm2.432-3h-1.545a.39.39 0 0 0-.39.39v.076a.39.39 0 0 0 .39.39h1.545a.39.39 0 0 0 .39-.39v-.076a.39.39 0 0 0-.39-.39m-2.985-2.144a.39.39 0 0 0 .426.085.4.4 0 0 0 .126-.085l1.093-1.092a.39.39 0 0 0 0-.552l-.055-.054a.39.39 0 0 0-.425-.084.4.4 0 0 0-.126.084l-1.092 1.093a.39.39 0 0 0-.085.425.4.4 0 0 0 .084.127z"/><path id="矢量 55" fill="#bb188e" fill-rule="nonzero" d="M20.105 9.143a1.324 1.324 0 0 0 1.053-1.286c0-.728-.548-1.286-1.263-1.286-.169 0-.295.043-.421.086v-.086c0-.942-.758-1.714-1.684-1.714-.927 0-1.685.772-1.685 1.714 0 .172.042.3.042.472C16.063 7 15.98 7 15.895 7c-.59 0-1.053.471-1.053 1.071s.463 1.072 1.053 1.072zm0 .857h-4.21C14.842 10 14 9.143 14 8.071c0-.857.547-1.585 1.263-1.842C15.432 4.986 16.484 4 17.79 4c1.094 0 2.063.729 2.4 1.714C21.2 5.843 22 6.743 22 7.857A2.16 2.16 0 0 1 20.105 10"/><path id="矢量 62" fill="#bb188e" fill-rule="nonzero" d="M28.105 6.143a1.324 1.324 0 0 0 1.053-1.286c0-.728-.548-1.286-1.263-1.286-.169 0-.295.043-.421.086v-.086c0-.942-.758-1.714-1.684-1.714-.927 0-1.685.772-1.685 1.714 0 .172.042.3.042.472C24.063 4 23.98 4 23.895 4c-.59 0-1.053.471-1.053 1.071s.463 1.072 1.053 1.072zm0 .857h-4.21C22.842 7 22 6.143 22 5.071c0-.857.547-1.585 1.263-1.842C23.432 1.986 24.484 1 25.79 1c1.095 0 2.064.729 2.4 1.714C29.2 2.843 30 3.743 30 4.857A2.16 2.16 0 0 1 28.105 7"/><path id="矢量 56" fill="#bb188e" fill-rule="nonzero" d="M10.105 6.143a1.324 1.324 0 0 0 1.053-1.286c0-.728-.547-1.286-1.263-1.286-.169 0-.295.043-.421.086v-.086c0-.942-.758-1.714-1.685-1.714-.926 0-1.684.772-1.684 1.714 0 .172.042.3.042.472C6.063 4 5.98 4 5.895 4c-.59 0-1.053.471-1.053 1.071s.463 1.072 1.053 1.072zm0 .857h-4.21C4.842 7 4 6.143 4 5.071c0-.857.547-1.585 1.263-1.842C5.432 1.986 6.484 1 7.79 1c1.095 0 2.064.729 2.4 1.714C11.2 2.843 12 3.743 12 4.857A2.16 2.16 0 0 1 10.105 7"/><path id="矢量 55" fill="#bb188e" fill-rule="evenodd" d="M13.02 2.784h.112c.123.188.324.615.15.825-1.088.113-1.725.675-1.988 1.613-.15.562-.112 1.237.15 1.875 1.125 2.887-.6 5.1-.675 5.212-1.275 1.688-2.85 2.025-3.937 2.025a6.2 6.2 0 0 1-1.725-.262l-.863 1.65c-.187.3-.45.487-.75.6-.487.15-.75 0-.937-.075a1.286 1.286 0 0 1-.525-1.688l.112-.225s-.487.15-.637.15c-.563 0-1.05-.337-1.2-.862-.113-.3-.075-.638.075-.938s.45-.487.75-.6l.375-.112-.413-.225c-.6-.338-.862-1.088-.525-1.688.188-.3.45-.525.75-.6.3-.112.638-.075.938.075l1.275.675q.675-.112 1.237-.337c-1.65-.15-2.925-.75-3.75-1.838C-.068 6.572-.293 4.284.382 1.847c.075-.188.225-.3.412-.263.188 0 .338.15.338.338.037.75.375 1.5.937 1.95.413-1.313 1.35-2.663 2.7-3.788a.394.394 0 0 1 .488 0c.15.113.15.338.075.488-.863 1.5-.488 3.525.862 4.575.413.337.75.75 1.013 1.2 0-.638-.15-1.088-.15-1.088v-.075c-.15-1.087.037-1.95.525-2.55.562-.712 1.35-.825 1.537-.862a1.96 1.96 0 0 1 1.388.187c.862.525 1.687.788 2.512.825M9.043 3.91a.34.34 0 0 1 .113-.262c.112-.113.375-.113.525 0a.34.34 0 0 1 .112.262.34.34 0 0 1-.112.263.34.34 0 0 1-.263.112.34.34 0 0 1-.262-.112.34.34 0 0 1-.113-.263M5.182 5.297c-.825-.938-1.2-2.25-1.05-3.488-.75.863-1.275 1.838-1.5 2.7.15.113.262.188.412.263.6.337 1.388.412 1.425.412.263 0 .488.038.713.113m5.512 2.1c-.3-.788-.375-1.613-.187-2.363.15-.562.487-1.237 1.162-1.687a7.7 7.7 0 0 1-1.537-.675 1.15 1.15 0 0 0-.863-.113h-.075s-.637.075-1.05.6c-.375.45-.487 1.088-.375 1.95.038.225.338 1.275.075 2.438a.41.41 0 0 1-.3.3.46.46 0 0 1-.375-.188c-1.012-1.8-3.15-1.762-3.3-1.8h-.075c-1.012-.225-1.575-.675-1.8-.862 0-.038-.825-.713-1.162-1.463-.188 1.613.075 3.075.825 4.05.9 1.2 2.437 1.688 4.575 1.538.15-.038.3.075.375.225s0 .3-.113.412c-.712.6-1.687.975-2.887 1.2-.075 0-.15 0-.225-.037l-1.425-.713a.44.44 0 0 0-.375-.037c-.113.037-.225.15-.3.262-.113.225 0 .525.225.675l1.2.638a.46.46 0 0 1 .187.375c0 .15-.112.3-.262.337l-1.275.375a.47.47 0 0 0-.3.225.44.44 0 0 0-.038.375.48.48 0 0 0 .6.338l1.125-.338h.113c.112 0 .225.075.3.15a.4.4 0 0 1 .037.413l-.525 1.012c-.15.225-.037.563.188.675.412.113.6-.112.675-.225l1.012-1.95c.113-.187.3-.262.488-.187a5 5 0 0 0 1.762.337c1.35 0 2.475-.6 3.338-1.762.037-.113 1.537-2.025.562-4.5" transform="rotate(2.761 -146.327 -42.363)"/><path id="矢量 60" fill="#bb188e" fill-rule="evenodd" d="M13.02 2.784h.112c.123.188.324.615.15.825-1.088.113-1.725.675-1.988 1.613-.15.562-.112 1.237.15 1.875 1.125 2.887-.6 5.1-.675 5.212-1.275 1.688-2.85 2.025-3.937 2.025a6.2 6.2 0 0 1-1.725-.262l-.863 1.65c-.187.3-.45.487-.75.6-.487.15-.75 0-.937-.075a1.286 1.286 0 0 1-.525-1.688l.112-.225s-.487.15-.637.15c-.563 0-1.05-.337-1.2-.862-.113-.3-.075-.638.075-.938s.45-.487.75-.6l.375-.112-.413-.225c-.6-.338-.862-1.088-.525-1.688.188-.3.45-.525.75-.6.3-.112.638-.075.938.075l1.275.675q.675-.112 1.237-.337c-1.65-.15-2.925-.75-3.75-1.838C-.068 6.572-.293 4.284.382 1.847c.075-.188.225-.3.412-.263.188 0 .338.15.338.338.037.75.375 1.5.937 1.95.413-1.313 1.35-2.663 2.7-3.788a.394.394 0 0 1 .488 0c.15.113.15.338.075.488-.863 1.5-.488 3.525.862 4.575.413.337.75.75 1.013 1.2 0-.638-.15-1.088-.15-1.088v-.075c-.15-1.087.037-1.95.525-2.55.562-.712 1.35-.825 1.537-.862a1.96 1.96 0 0 1 1.388.187c.862.525 1.687.788 2.512.825M9.043 3.91a.34.34 0 0 1 .113-.262c.112-.113.375-.113.525 0a.34.34 0 0 1 .112.262.34.34 0 0 1-.112.263.34.34 0 0 1-.263.112.34.34 0 0 1-.262-.112.34.34 0 0 1-.113-.263M5.182 5.297c-.825-.938-1.2-2.25-1.05-3.488-.75.863-1.275 1.838-1.5 2.7.15.113.262.188.412.263.6.337 1.388.412 1.425.412.263 0 .488.038.713.113m5.512 2.1c-.3-.788-.375-1.613-.187-2.363.15-.562.487-1.237 1.162-1.687a7.7 7.7 0 0 1-1.537-.675 1.15 1.15 0 0 0-.863-.113h-.075s-.637.075-1.05.6c-.375.45-.487 1.088-.375 1.95.038.225.338 1.275.075 2.438a.41.41 0 0 1-.3.3.46.46 0 0 1-.375-.188c-1.012-1.8-3.15-1.762-3.3-1.8h-.075c-1.012-.225-1.575-.675-1.8-.862 0-.038-.825-.713-1.162-1.463-.188 1.613.075 3.075.825 4.05.9 1.2 2.437 1.688 4.575 1.538.15-.038.3.075.375.225s0 .3-.113.412c-.712.6-1.687.975-2.887 1.2-.075 0-.15 0-.225-.037l-1.425-.713a.44.44 0 0 0-.375-.037c-.113.037-.225.15-.3.262-.113.225 0 .525.225.675l1.2.638a.46.46 0 0 1 .187.375c0 .15-.112.3-.262.337l-1.275.375a.47.47 0 0 0-.3.225.44.44 0 0 0-.038.375.48.48 0 0 0 .6.338l1.125-.338h.113c.112 0 .225.075.3.15a.4.4 0 0 1 .037.413l-.525 1.012c-.15.225-.037.563.188.675.412.113.6-.112.675-.225l1.012-1.95c.113-.187.3-.262.488-.187a5 5 0 0 0 1.762.337c1.35 0 2.475-.6 3.338-1.762.037-.113 1.537-2.025.562-4.5" transform="rotate(177.239 17.083 3.914)scale(1 -1)"/></g><g filter="url(#filter_4)"><path fill="url(#paint_linear_4)" d="M12.368 16.168q-.154.013-.475.013-1.89 0-3.36-.81v-2.058q.77.476 1.692.797.926.321 1.682.321.615 0 .97-.307.36-.308.36-.701 0-.544-.421-.998-.42-.458-1.343-.739-1.063-.334-1.661-.676-.595-.345-.896-.862-.3-.52-.3-1.315 0-.756.362-1.378.365-.625 1.073-1.001.707-.38 1.688-.42.123-.014.39-.014.728 0 1.463.147.735.146 1.24.369V8.34q-.546-.236-1.274-.39-.728-.153-1.289-.153-.714 0-1.094.253-.376.25-.376.697 0 .407.407.728t1.261.615q1.022.298 1.665.67.642.37 1.005.964.365.595.365 1.49 0 .855-.393 1.515-.39.656-1.097 1.028-.707.37-1.644.41m7.952 0q-.154.013-.475.013-1.89 0-3.36-.81v-2.058q.77.476 1.692.797.926.321 1.682.321.615 0 .97-.307.36-.308.36-.701 0-.544-.421-.998-.42-.458-1.343-.739-1.063-.334-1.662-.676-.594-.345-.895-.862-.3-.52-.3-1.315 0-.756.361-1.378.366-.625 1.074-1.001.707-.38 1.688-.42.123-.014.39-.014.728 0 1.463.147.735.146 1.24.369V8.34q-.546-.236-1.274-.39-.728-.153-1.289-.153-.714 0-1.094.253-.376.25-.376.697 0 .407.407.728t1.261.615q1.022.298 1.665.67.642.37 1.005.964.365.595.365 1.49 0 .855-.393 1.515-.39.656-1.097 1.028-.707.37-1.644.41"/></g></svg>